# xmcd
#
# Track frame offsets:
#	150
#	17463
#	35786
#	46789
#	56928
#	74928
#	89088
#	90326
#	105333
#	118509
#	135731
#	140171
#	154188
#
# Disc length: 2276 seconds
#
# Revision: 0
# Processed by: cddbd v1.5.1PL0 Copyright (c) Steve Scherf et al.
# Submitted via: audiograbber 1.83.01
#
DISCID=ba08e20d
DTITLE=林一峰 - 一個人在途上
DYEAR=2004
DGENRE=Indie
TTITLE0=CL411
TTITLE1=沒有夏娃的伊甸園
TTITLE2=冷熱之間
TTITLE3=戀人絮語
TTITLE4=一支煙的時間
TTITLE5=說說自己的故事
TTITLE6=Buffering - Heart
TTITLE7=植物人
TTITLE8=State of Mind
TTITLE9=今天應該很高興
TTITLE10=Buffering - Time
TTITLE11=冷熱之間(Reprise)
TTITLE12=珨跺刱硰導
EXTD=
EXTT0=
EXTT1=
EXTT2=
EXTT3=
EXTT4=
EXTT5=
EXTT6=
EXTT7=
EXTT8=
EXTT9=
EXTT10=
EXTT11=
EXTT12=
PLAYORDER=
